<svg xmlns="http://www.w3.org/2000/svg" data-name="Layer 2" viewBox="0 0 100 125" x="0px" y="0px"><title>brain</title><path d="M57.53,88.06a8.49,8.49,0,0,0,2.7.44,13.17,13.17,0,0,0,7.67-3,6.34,6.34,0,0,0,4.65-.89c3.15-2.11,4.08-7,4.89-11.36.1-.51.2-1,.29-1.51,1.82-.33,5.91-2,6.8-10.17C86,60.09,92,53,85.72,44.25a47.89,47.89,0,0,0,.42-12.31s0-.07,0-.1a12.63,12.63,0,0,0-2.31-6.41,5.5,5.5,0,0,0-3.69-2c-.8-1.93-3.66-7.16-11.61-7.52C67.78,13,63.8,11.5,60,11.5a12,12,0,0,0-7.42,2.36A9,9,0,0,0,50,17.15a9,9,0,0,0-2.61-3.29A12,12,0,0,0,40,11.5c-3.77,0-7.75,1.53-8.49,4.4-7.95.36-10.81,5.59-11.61,7.52a5.5,5.5,0,0,0-3.69,2,12.63,12.63,0,0,0-2.31,6.41s0,.06,0,.1a47.92,47.92,0,0,0,.42,12.31C8,53,14,60.09,15.48,61.58c.88,8.17,5,9.84,6.79,10.17.09.49.19,1,.29,1.51.81,4.34,1.74,9.25,4.89,11.36a6.34,6.34,0,0,0,4.65.89,13.17,13.17,0,0,0,7.68,3,8.47,8.47,0,0,0,2.69-.44c4-1.35,6.34-5.44,7.53-8.2C51.19,82.62,53.56,86.71,57.53,88.06ZM49,76.8c-.29,1-2.47,7.77-7.17,9.37-2.46.82-5.28.08-8.41-2.19.26-1.55,1.57-6,8.19-6a1,1,0,0,0,0-2c-7.85,0-9.71,5.48-10.13,7.62a4.28,4.28,0,0,1-2.92-.6c-2.45-1.65-3.29-6.12-4-10.07-.12-.63-.23-1.23-.35-1.82,3.38-4.61,8-6.73,13-5.95a1,1,0,0,0,1.14-.84,1,1,0,0,0-.84-1.14c-5.7-.88-11.1,1.55-14.89,6.66-1.16-.2-4.23-1.4-5.09-7.93,2.16-.68,5.16-2.52,5.23-6a1,1,0,0,0-1-1h0a1,1,0,0,0-1,1c-.05,2.78-2.87,3.88-4,4.22-1.43-1.49-6.19-7.37-.7-14.77a15.64,15.64,0,0,1,7.1-2.42c.09,2,.57,6.26,2.93,8.68a5.81,5.81,0,0,0,4.33,1.81,1,1,0,1,0,0-2,3.89,3.89,0,0,1-2.9-1.2c-1.89-1.95-2.28-5.67-2.36-7.41a24.84,24.84,0,0,1,6.17.66,1,1,0,0,0,.54-1.93c-.38-.1-8.82-2.36-15.75,1.43a48.09,48.09,0,0,1-.39-9.14A8.67,8.67,0,0,0,20,34.94a8.45,8.45,0,0,0,5.64-2.29,1,1,0,0,0-1.32-1.51,6.32,6.32,0,0,1-8.4.35,9.92,9.92,0,0,1,1.78-4.78,3.55,3.55,0,0,1,2.87-1.32h0a0,0,0,0,0,0,0c6.6-.34,7.84,1.3,7.85,1.3h0a1,1,0,0,0,.92.61,1,1,0,0,0,.39-.08,1,1,0,0,0,.53-1.31c-.19-.46-1.48-2.6-8.22-2.56,1-1.88,3.59-5.18,9.54-5.43a21.36,21.36,0,0,0,3.61,6.45c-1,1.27-2.93,4.13-2.7,6.72a1,1,0,0,0,1,.91h.09a1,1,0,0,0,.91-1.08c-.15-1.67,1.15-3.8,2.11-5.09A7.16,7.16,0,0,0,41.32,28h.37a1,1,0,0,0-.16-2c-2.73.19-6.52-4.07-8.16-9.24C33.5,15,36.47,13.5,40,13.5a10.08,10.08,0,0,1,6.19,1.93A7.85,7.85,0,0,1,49,21.94V38.46c-2.5.1-7.16-.09-9-1.8A2.13,2.13,0,0,1,39.24,35a1,1,0,0,0-2,0,4.14,4.14,0,0,0,1.39,3.14,7.46,7.46,0,0,0,2.43,1.37C40.82,41.35,39.85,46,36.12,46a1,1,0,0,0,0,2c4.62,0,6.44-4.68,6.9-8a24.79,24.79,0,0,0,4.77.43c.46,0,.86,0,1.21,0V51.82c-6.77,0-12.52.29-14.65,6.32A1,1,0,0,0,35,59.42a1.26,1.26,0,0,0,.33,0,1,1,0,0,0,1-.66c1.6-4.55,5.71-5,12.76-5V64.27a13,13,0,0,1-10.69,4.17,1,1,0,0,0-.15,2c.43,0,.85,0,1.26,0A14.94,14.94,0,0,0,49,67ZM51,67a14.94,14.94,0,0,0,9.58,3.46c.41,0,.83,0,1.26,0a1,1,0,1,0-.16-2A13,13,0,0,1,51,64.27V53.82c7,0,11.16.44,12.76,5a1,1,0,0,0,.95.66,1.26,1.26,0,0,0,.33,0,1,1,0,0,0,.61-1.28c-2.13-6-7.88-6.31-14.65-6.32V40.46c.35,0,.75,0,1.21,0A24.79,24.79,0,0,0,57,40.06c.46,3.28,2.28,8,6.9,8a1,1,0,0,0,0-2c-3.73,0-4.7-4.67-4.94-6.51a7.46,7.46,0,0,0,2.43-1.37A4.14,4.14,0,0,0,62.76,35a1,1,0,0,0-2,0A2.13,2.13,0,0,1,60,36.66c-1.85,1.7-6.52,1.89-9,1.8V21.94a7.85,7.85,0,0,1,2.84-6.51A10.08,10.08,0,0,1,60,13.5c3.5,0,6.47,1.48,6.6,3.25a18.55,18.55,0,0,1-3.86,6.84h0c-1.44,1.55-3,2.49-4.3,2.39a1,1,0,0,0-1.07.92A1,1,0,0,0,58.31,28h.37a7.16,7.16,0,0,0,4.66-2.18c1,1.28,2.26,3.42,2.11,5.09A1,1,0,0,0,66.36,32h.09a1,1,0,0,0,1-.91c.23-2.59-1.71-5.45-2.7-6.72a21.36,21.36,0,0,0,3.61-6.45c6,.25,8.57,3.54,9.55,5.43-6.75,0-8,2.1-8.23,2.56a1,1,0,0,0,.92,1.43.94.94,0,0,0,.88-.58s1.17-1.72,7.89-1.37c0,0,0,0,0,0h0a3.55,3.55,0,0,1,2.87,1.32,10,10,0,0,1,1.79,4.78,6.3,6.3,0,0,1-8.41-.35,1,1,0,0,0-1.32,1.51A8.45,8.45,0,0,0,80,34.94a8.67,8.67,0,0,0,4.32-1.21,48.09,48.09,0,0,1-.39,9.14C77,39.08,68.54,41.34,68.16,41.44a1,1,0,0,0,.54,1.93,25.2,25.2,0,0,1,6.17-.67c-.08,1.74-.47,5.47-2.36,7.42a3.89,3.89,0,0,1-2.9,1.2,1,1,0,0,0,0,2,5.81,5.81,0,0,0,4.33-1.81c2.36-2.42,2.84-6.67,2.93-8.68A15.68,15.68,0,0,1,84,45.25c5.47,7.37.72,13.27-.7,14.77-1.16-.34-4-1.46-4-4.22a1,1,0,0,0-1-1h0a1,1,0,0,0-1,1c.07,3.51,3.07,5.35,5.23,6-.86,6.54-3.95,7.72-5.09,7.92-3.8-5.1-9.19-7.53-14.89-6.65a1,1,0,1,0,.3,2c5-.78,9.67,1.34,13,5.95-.12.59-.23,1.19-.35,1.82-.75,4-1.59,8.42-4,10.07a4.28,4.28,0,0,1-2.92.6c-.42-2.14-2.28-7.62-10.13-7.62a1,1,0,1,0,0,2c6.57,0,7.92,4.49,8.19,6-3.12,2.27-5.95,3-8.4,2.19-4.7-1.59-6.88-8.38-7.18-9.37Z"/><text x="0" y="115" fill="#000000" font-size="5px" font-weight="bold" font-family="'Helvetica Neue', Helvetica, Arial-Unicode, Arial, Sans-serif">Created by Matthias Hartmann</text><text x="0" y="120" fill="#000000" font-size="5px" font-weight="bold" font-family="'Helvetica Neue', Helvetica, Arial-Unicode, Arial, Sans-serif">from the Noun Project</text></svg>